<svg xmlns="http://www.w3.org/2000/svg" viewBox="0 0 174.16 108.45"><defs><style>.cls-1{fill:#999;}.cls-2,.cls-4{fill:#fff;}.cls-2{stroke:#fff;stroke-miterlimit:10;stroke-width:0.5px;}.cls-3{fill:#727272;}</style></defs><g id="Layer_2" data-name="Layer 2"><g id="Layer_1-2" data-name="Layer 1"><path class="cls-1" d="M79.87,33.35V18.18c0-.73.24-1,1-1h2.84c.72,0,1,.24,1,1V33.35c0,.72-.25,1-1,1H80.83C80.11,34.31,79.87,34.07,79.87,33.35Z"/><path class="cls-1" d="M90.32,33.3V18.23c0-.75.26-1,1-1h3.18a.9.9,0,0,1,.92.48l3.05,5.86a30.73,30.73,0,0,1,1.88,4.72h.22a20.6,20.6,0,0,1-1.13-6.1V18.23c0-.75.24-1,1-1H103c.72,0,1,.27,1,1V33.3c0,.74-.26,1-1,1h-2.94a.88.88,0,0,1-.94-.51l-2.89-5.63a29.11,29.11,0,0,1-1.9-5h-.2a23.31,23.31,0,0,1,.73,6.21V33.3c0,.74-.22,1-1,1h-2.6C90.58,34.31,90.32,34,90.32,33.3Z"/><path class="cls-1" d="M113.18,33.51l-4.8-15.31c-.21-.65,0-1,.68-1h2.82c1.34,0,1.51.27,1.7,1l2,7.8a18.38,18.38,0,0,1,.5,3.54h.22a19.64,19.64,0,0,1,.41-3.54l2-7.8c.19-.75.51-1,1.61-1h2.87c.72,0,.82.34.63,1L119,33.47a1,1,0,0,1-1.18.84h-3.47C113.68,34.31,113.39,34.16,113.18,33.51Z"/><path class="cls-1" d="M128.13,33.3V18.23c0-.75.27-1,1-1h9.44c.77,0,1,.27,1,1v2.16c0,.77-.24,1-1,1H132.9v2.14h4.41c.77,0,1,.27,1,1v2.17c0,.77-.24,1-1,1H132.9V30.1h5.88c.77,0,1,.24,1,1V33.3c0,.74-.26,1-1,1h-9.64C128.4,34.31,128.13,34,128.13,33.3Z"/><path class="cls-1" d="M144.1,30.94c-.24-.72-.1-1.06.58-1.3l2.41-.84c.7-.25,1-.2,1.37.55a2.25,2.25,0,0,0,2.24,1.25c1.42,0,2.14-.34,2.14-1.37s-1-1.25-2.43-1.45c-2.53-.33-6.26-1-6.26-5.53,0-3.18,2.46-5.4,6.69-5.4,3.28,0,5.23,1.11,6.34,3.4.33.7.12,1.08-.58,1.35l-2.41.93c-.63.25-.89.17-1.23-.52a2.22,2.22,0,0,0-2.12-1.16c-1.27,0-1.85.38-1.85,1.25,0,1.21,1.28,1.3,2.79,1.49,2.51.32,5.93,1.06,5.93,5.61,0,3.54-2.89,5.47-7,5.47C147.52,34.67,144.94,33.44,144.1,30.94Z"/><path class="cls-1" d="M165.13,33.3V21.43h-3.25c-.75,0-1-.27-1-1V18.23c0-.75.27-1,1-1h11.26c.75,0,1,.27,1,1v2.16c0,.77-.27,1-1,1h-3.25V33.3c0,.74-.26,1-1,1h-2.74C165.39,34.31,165.13,34,165.13,33.3Z"/><path class="cls-1" d="M83.76,66.35V51.18c0-.73.24-1,1-1h2.84c.72,0,1,.24,1,1V66.35c0,.72-.24,1-1,1H84.72C84,67.31,83.76,67.07,83.76,66.35Z"/><path class="cls-1" d="M93.46,66.3V51.23c0-.75.27-1,1-1H97.6a.89.89,0,0,1,.92.48l3.06,5.86a31.78,31.78,0,0,1,1.88,4.72h.21a20.6,20.6,0,0,1-1.13-6.1V51.23c0-.75.24-1,1-1h2.6c.72,0,1,.27,1,1V66.3c0,.74-.27,1-1,1h-2.94a.88.88,0,0,1-.94-.51l-2.89-5.63a30,30,0,0,1-1.9-5h-.19A23.76,23.76,0,0,1,98,62.37V66.3c0,.74-.22,1-1,1h-2.6C93.73,67.31,93.46,67,93.46,66.3Z"/><path class="cls-2" d="M120.1,60.93V56.59c0-4.16,2.48-6.74,7-6.74s7,2.58,7,6.74v4.34c0,4.16-2.48,6.74-7,6.74S120.1,65.09,120.1,60.93Zm9.17.22V56.38a2.2,2.2,0,1,0-4.4,0v4.77a2.2,2.2,0,1,0,4.4,0Z"/><path class="cls-2" d="M138.45,61V51.23c0-.75.27-1,.94-1h2.89c.68,0,.94.27.94,1v10c0,1.42.68,2.22,2.07,2.22s2.12-.8,2.12-2.22v-10c0-.75.22-1,.94-1h2.84c.72,0,1,.27,1,1V61c0,4-2.39,6.65-6.89,6.65S138.45,65.07,138.45,61Z"/><path class="cls-2" d="M157,66.3V51.23c0-.75.27-1,1-1H164c3.64,0,6,2,6,5.76a5,5,0,0,1-2.58,4.69,9.82,9.82,0,0,1,.65,1.11l2.17,4.36c.34.65.17,1.18-.62,1.18h-2.75c-1.18,0-1.56-.31-1.93-1.16l-1.42-3.29c-.36-.82-.72-1.23-1.56-1.23h-.24V66.3c0,.74-.27,1-1,1H158C157.22,67.31,157,67,157,66.3Zm6.69-8.69A1.47,1.47,0,0,0,165.23,56a1.43,1.43,0,0,0-1.59-1.56h-1.92v3.18Z"/><polygon class="cls-3" points="67.75 66.31 33.95 75.33 0 66.31 0 0 67.75 0 67.75 66.31"/><path class="cls-4" d="M50.72,16.54H39.55l-7.31,7.15.44,6.85H29.27l-1.95,1.51H21.47l-1.94-.58-8.79.62v3l1.77.69.8,1.44-1.28,1-1,1.57L7.37,41.62v2.84H36.71L39.28,49,46,52.72l-.07,4.5L50,56.34l.75.75,7.14-2.7,2-1.56s.17-.21,0-.11A46.46,46.46,0,0,1,54,55.18v-.46l2.57-1.13,1.5-2,1.86-1.24-.44-.27-3.15,1.55-1.34,1L48.9,54S46.75,55.85,46,56.38L48.1,53.1l-.18-1.51L49.25,51l.36-5.15L51.12,38V27.28L50,27.46Z"/><path class="cls-4" d="M44.38,56.73l.8.36-.09.8a10.06,10.06,0,0,0-2,.62l-.09-.45.53-1Z"/><path class="cls-4" d="M.09,106.64V86.76c0-1,.35-1.33,1.27-1.33H5.55a1.15,1.15,0,0,1,1.2.64l4,7.71A41.4,41.4,0,0,1,13.26,100h.29c-.79-3-1.49-4.83-1.49-8V86.76c0-1,.32-1.33,1.3-1.33h3.43c.95,0,1.3.35,1.3,1.33v19.88c0,1-.35,1.34-1.3,1.34H12.91a1.16,1.16,0,0,1-1.23-.67L7.87,99.88a38.2,38.2,0,0,1-2.51-6.61H5.1a31,31,0,0,1,1,8.2v5.17c0,1-.29,1.34-1.27,1.34H1.36C.44,108,.09,107.63.09,106.64Z"/><path class="cls-4" d="M24.69,106.64V86.76c0-1,.35-1.33,1.34-1.33H38.47c1,0,1.34.35,1.34,1.33v2.86c0,1-.32,1.37-1.34,1.37H31v2.82h5.81c1,0,1.33.35,1.33,1.34V98c0,1-.31,1.37-1.33,1.37H31v3h7.75c1,0,1.36.32,1.36,1.33v2.89c0,1-.35,1.34-1.36,1.34H26C25,108,24.69,107.63,24.69,106.64Z"/><path class="cls-4" d="M49.46,106.93l-4.7-20.2c-.22-.89-.16-1.3.76-1.3h4.16c1.08,0,1.52.19,1.68,1.18l1.24,8.31a52,52,0,0,1,.35,5.62h.25a33.07,33.07,0,0,1,.45-5.62l1.71-8.31c.19-1,.73-1.18,1.72-1.18h3.27c1,0,1.49.19,1.68,1.18l1.53,8.31a46.34,46.34,0,0,1,.54,5.62h.25a44.32,44.32,0,0,1,.35-5.62l1.24-8.31c.12-1,.51-1.18,1.55-1.18h4c1,0,1.15.41.93,1.3l-4.8,20.13c-.22.92-.7,1.12-1.56,1.12h-4c-.89,0-1.43-.23-1.58-1l-1.31-7.4a29.59,29.59,0,0,1-.5-5.72h-.29a42.48,42.48,0,0,1-.63,5.72l-1.31,7.33c-.19.92-.7,1.12-1.55,1.12H51.05C50.22,108,49.65,107.78,49.46,106.93Z"/><path class="cls-4" d="M90.67,106.64V99.43L83.94,86.76c-.38-.73-.29-1.33.66-1.33h4.13c1.53,0,1.84.09,2.32,1.21l2.76,6.57,2.83-6.54c.51-1.18.82-1.24,2.32-1.24h4c1,0,1,.6.63,1.33L97,99.43v7.21c0,1-.32,1.34-1.27,1.34H91.91C91,108,90.67,107.63,90.67,106.64Z"/><path class="cls-4" d="M107.15,99.56V93.85c0-5.5,3.27-8.9,9.17-8.9s9.21,3.4,9.21,8.9v5.71c0,5.49-3.27,8.89-9.21,8.89S107.15,105.05,107.15,99.56Zm12.1.29V93.56c0-2-1-3-2.93-3s-2.89,1-2.89,3v6.29c0,2,1,3.05,2.89,3.05S119.25,101.85,119.25,99.85Z"/><path class="cls-4" d="M131.63,106.64V86.76c0-1,.35-1.33,1.33-1.33h8c4.8,0,7.88,2.67,7.88,7.59a6.6,6.6,0,0,1-3.4,6.19,14.07,14.07,0,0,1,.86,1.46l2.85,5.75c.45.86.23,1.56-.82,1.56h-3.62c-1.56,0-2.07-.42-2.54-1.53l-1.88-4.35c-.47-1.08-.95-1.62-2.06-1.62h-.32v6.16c0,1-.35,1.34-1.33,1.34H133C132,108,131.63,107.63,131.63,106.64Zm8.82-11.46a1.93,1.93,0,0,0,2.1-2.13,1.9,1.9,0,0,0-2.1-2.06h-2.54v4.19Z"/><path class="cls-4" d="M155,106.64V86.76c0-1,.35-1.33,1.34-1.33h3.62c1,0,1.33.35,1.33,1.33v7.09h1.05l3.49-7.24c.48-1,.7-1.18,2.32-1.18h3.59c1,0,1.2.57.76,1.4L167.54,96a5.27,5.27,0,0,1,1.71,2.47l3.65,7.91c.38.86.22,1.56-.82,1.56h-3.27c-1.69,0-2.13-.2-2.61-1.34L163.79,101c-.44-1-.92-1.59-2.13-1.59h-.41v7.24c0,1-.35,1.34-1.33,1.34H156.3C155.31,108,155,107.63,155,106.64Z"/></g></g></svg>