<svg xmlns="http://www.w3.org/2000/svg" viewBox="0 0 89.4 200.66"><defs><style>.cls-1{fill:#0d1b3f;}.cls-2{fill:#f33;}.cls-3,.cls-4{fill:#fff;}.cls-4{stroke:#fff;stroke-miterlimit:10;stroke-width:0.25px;}</style></defs><g id="Layer_2" data-name="Layer 2"><g id="Layer_1-2" data-name="Layer 1"><rect class="cls-1" x="1.11" y="-1.11" width="87.18" height="89.4" transform="translate(88.29 -1.11) rotate(90)"/><polygon class="cls-2" points="89.4 173.16 44.79 200.66 0 173.16 0 86.53 89.4 86.53 89.4 173.16"/><polygon class="cls-3" points="68.53 106.88 53.26 106.88 46.98 112.85 46.15 115.93 42.12 118.35 42.72 126.58 38.4 126.58 35.85 128.54 27.53 128.54 26.22 128.15 17.18 128.15 12.36 129.02 12.85 133.16 14.85 134.12 15.97 136.13 14.17 137.49 12.71 139.68 7.62 142.31 7.62 146.27 48.84 146.27 52.45 152.58 62.29 158.4 61.67 161.61 61.8 164.09 67.52 162.85 68.58 163.9 78.61 160.13 82.09 157.41 77.86 159.51 73.13 161.24 73.38 160 76.74 159.01 78.86 156.29 81.47 154.56 80.85 154.19 76.43 156.35 74.68 158.33 68.71 158.7 65.97 159.57 64.22 161.18 61.86 162.91 64.85 158.33 64.6 156.23 66.47 155.36 66.96 143.98 69.08 137.3 69.08 123.4 67.5 123.64 67.5 110.18 68.53 106.88"/><polygon class="cls-3" points="59.73 163.48 60.85 163.98 60.73 165.1 59.23 165.47 57.98 165.97 57.86 165.35 58.61 163.98 59.73 163.48"/><path class="cls-2" d="M6.44,52.79V38.44a.9.9,0,0,1,.9-.9H9.88a.9.9,0,0,1,.9.9V52.79a.9.9,0,0,1-.9.9H7.34A.9.9,0,0,1,6.44,52.79Z"/><path class="cls-2" d="M13.53,52.37V38.48c0-.69.26-.94.92-.94h3a.85.85,0,0,1,.87.45l2.92,5.42a29.3,29.3,0,0,1,1.79,4.37h.21a18.62,18.62,0,0,1-1.08-5.64V38.47c0-.68.23-.93.94-.93H25.6c.68,0,.93.25.93.93v13.9c0,.69-.25.93-.93.93H22.85c-.51,0-.72-.13-.9-.46l-2.77-5.18a26.55,26.55,0,0,1-1.82-4.6h-.19a20.52,20.52,0,0,1,.7,5.7v3.6a1,1,0,0,1-.95.94H14.46C13.79,53.3,13.53,53.06,13.53,52.37Z"/><path class="cls-2" d="M32.6,52.94,28.08,38.47c-.21-.61,0-.93.63-.93h2.75c1.24,0,1.4.25,1.58.94l1.82,7.21A17.28,17.28,0,0,1,35.33,49h.2a18.57,18.57,0,0,1,.38-3.28l1.81-7.21c.17-.69.46-.94,1.49-.94H42c.68,0,.77.32.59.93L38.11,52.9a1,1,0,0,1-1.12.79H33.72C33.08,53.69,32.81,53.56,32.6,52.94Z"/><path class="cls-2" d="M44.26,52.58V38.49a.94.94,0,0,1,1-1H54c.71,0,.94.25.94,1v2a1,1,0,0,1-1,1H48.59v2h4.17c.73,0,1,.24,1,.93v2.07a1,1,0,0,1-.95.94H48.59v2h5.63s1,.45,1.07,1.17v2c-.1.69-.35.94-1.07,1.11h-9C44.53,53.52,44.26,52.58,44.26,52.58Z"/><path class="cls-2" d="M56.88,50.37c-.23-.67-.09-1,.54-1.21l2.25-.79c.65-.22,1-.18,1.28.52A2.11,2.11,0,0,0,63,50.06c1.33,0,2-.32,2-1.28s-.94-1.17-2.27-1.35c-2.36-.32-5.85-1-5.85-5.18,0-3,2.3-5,6.26-5,3.05,0,4.88,1,5.91,3.17.31.65.11,1-.54,1.26l-2.25.87c-.58.23-.83.16-1.15-.49a2.06,2.06,0,0,0-2-1.08c-1.2,0-1.74.36-1.74,1.17,0,1.12,1.2,1.21,2.61,1.39,2.34.3,5.53,1,5.53,5.24,0,3.31-2.69,5.11-6.54,5.11C60.07,53.86,57.67,52.71,56.88,50.37Z"/><path class="cls-2" d="M74.2,52.75V41.48h-3c-.71,0-1-.25-1-1v-2a.94.94,0,0,1,.95-1H81.92a.94.94,0,0,1,1,1v2c0,.72-.25,1-1,1H78.53V52.75a.94.94,0,0,1-.94.94H75.15A.94.94,0,0,1,74.2,52.75Z"/><path class="cls-2" d="M10,77.61V63.26a.9.9,0,0,1,.9-.9h2.53a.9.9,0,0,1,.9.9V77.61a.9.9,0,0,1-.9.9H10.89A.9.9,0,0,1,10,77.61Z"/><path class="cls-2" d="M17.47,77.58V63.3c0-.69.26-.94.92-.94h3a.83.83,0,0,1,.87.45l2.92,5.42A29.3,29.3,0,0,1,27,72.6h.21A18.62,18.62,0,0,1,26.14,67V63.31a.94.94,0,0,1,.94-1h2.15c.62,0,.85.25.85,1V77.56c0,.7-.23,1-.85,1H26.79c-.51,0-.72-.13-.9-.46l-2.77-5.18a26.24,26.24,0,0,1-1.82-4.6h-.19a20.55,20.55,0,0,1,.7,5.71v3.59a1,1,0,0,1-.95.94H18.39C17.73,78.51,17.47,78.27,17.47,77.58Z"/><path class="cls-4" d="M36,72.52v-4c0-3.89,2.31-6.29,6.49-6.29S49,64.59,49,68.48v4c0,3.88-2.31,6.29-6.51,6.29S36,76.4,36,72.52Zm8.27.11V68.37a2,2,0,1,0-3.94,0v4.26a2,2,0,1,0,3.94,0Z"/><path class="cls-4" d="M51,72.46V63.31c0-.7.25-1,.89-1H54.8c.64,0,.89.25.89,1v9.35c0,1.33.63,2.07,1.94,2.07a1.81,1.81,0,0,0,2-2.07V63.31c0-.7.2-1,.88-1H63c.69,0,.94.25.94,1v9.15c0,3.78-2.26,6.2-6.52,6.2S51,76.24,51,72.46Z"/><path class="cls-4" d="M66.72,77.57V63.31a.94.94,0,0,1,.94-1H73.4c3.44,0,5.65,1.91,5.65,5.44a4.7,4.7,0,0,1-2.44,4.43,10.39,10.39,0,0,1,.62,1l2,4.12c.32.61.16,1.11-.59,1.11h-3c-1.07,0-1.42-.28-1.75-1l-1.29-3c-.33-.74-.65-1.11-1.42-1.11h-.22v4.18a.94.94,0,0,1-.94.94H67.66A.94.94,0,0,1,66.72,77.57ZM73,69.45a1.45,1.45,0,0,0,1.58-1.6A1.43,1.43,0,0,0,73,66.3H71.05v3.15Z"/></g></g></svg>