<svg xmlns="http://www.w3.org/2000/svg" viewBox="0 0 66.79 48.57"><defs><style>.cls-1{fill:#ec008c;}.cls-2{fill:#009444;}</style></defs><g id="Layer_2" data-name="Layer 2"><path class="cls-1" d="M10.63,22.77a4.56,4.56,0,1,0-4.56-4.56A4.56,4.56,0,0,0,10.63,22.77Zm0-6.07a1.52,1.52,0,1,1-1.52,1.51A1.52,1.52,0,0,1,10.63,16.7Z"/><path class="cls-2" d="M0,0V48.57H66.79V0ZM41,8.74a12.12,12.12,0,0,1,0,19ZM25.8,45.54H3v-3H25.8Zm0-6.08H3v-3H25.8Zm0-11.77a12.14,12.14,0,0,1,0-19Zm0-22.61a15.16,15.16,0,0,0,0,26.27v2H3V3H25.8ZM38,45.54H28.84V36.43H38Zm0-12.15H28.84V3H38Zm25.8,12.15H41v-3H63.75Zm0-6.08H41v-3H63.75Zm0-6.07H41v-2A15.16,15.16,0,0,0,41,5.08V3H63.75Z"/><path class="cls-1" d="M56.16,22.77a4.56,4.56,0,1,0-4.55-4.56A4.56,4.56,0,0,0,56.16,22.77Zm0-6.07a1.52,1.52,0,1,1-1.52,1.51A1.52,1.52,0,0,1,56.16,16.7Z"/></g></svg>