<svg xmlns="http://www.w3.org/2000/svg" viewBox="0 0 66.79 60.72"><defs><style>.cls-1{fill:#cdc22c;}.cls-2{fill:#ec008c;}.cls-3{fill:#009444;}</style></defs><g id="Layer_2" data-name="Layer 2"><path class="cls-1" d="M19.7,13.86a1.75,1.75,0,0,1,.79,1.32c0,1.68-3.32,3-8.35,3s-8.35-1.35-8.35-3a1.77,1.77,0,0,1,.8-1.32,10.48,10.48,0,0,1-2.95-1.72,4.09,4.09,0,0,0-1.64,3c0,3.35,5.44,6.07,12.14,6.07s12.15-2.72,12.15-6.07a4.13,4.13,0,0,0-1.64-3A10.77,10.77,0,0,1,19.7,13.86Z"/><path class="cls-1" d="M19.7,32.07a1.77,1.77,0,0,1,.79,1.32c0,1.68-3.32,3-8.35,3s-8.35-1.36-8.35-3a1.78,1.78,0,0,1,.8-1.32,10.23,10.23,0,0,1-2.95-1.71,4.07,4.07,0,0,0-1.64,3c0,3.36,5.44,6.07,12.14,6.07s12.15-2.71,12.15-6.07a4.11,4.11,0,0,0-1.64-3A10.51,10.51,0,0,1,19.7,32.07Z"/><path class="cls-1" d="M19.7,41.18a1.75,1.75,0,0,1,.79,1.32c0,1.68-3.32,3-8.35,3s-8.35-1.36-8.35-3a1.77,1.77,0,0,1,.8-1.32,10.24,10.24,0,0,1-2.95-1.72A4.09,4.09,0,0,0,0,42.5c0,3.35,5.44,6.07,12.14,6.07s12.15-2.72,12.15-6.07a4.13,4.13,0,0,0-1.64-3A10.52,10.52,0,0,1,19.7,41.18Z"/><path class="cls-1" d="M19.7,23a1.77,1.77,0,0,1,.79,1.33c0,1.67-3.32,3-8.35,3s-8.35-1.36-8.35-3A1.78,1.78,0,0,1,4.59,23a10.23,10.23,0,0,1-2.95-1.71,4.08,4.08,0,0,0-1.64,3c0,3.35,5.44,6.07,12.14,6.07s12.15-2.72,12.15-6.07a4.11,4.11,0,0,0-1.64-3A10.51,10.51,0,0,1,19.7,23Z"/><path class="cls-1" d="M12.14,0C5.44,0,0,2.72,0,6.07s5.44,6.07,12.14,6.07S24.29,9.42,24.29,6.07,18.85,0,12.14,0Zm0,9.11c-5,0-8.35-1.36-8.35-3s3.32-3,8.35-3,8.35,1.36,8.35,3S17.17,9.11,12.14,9.11Z"/><circle class="cls-2" cx="54.64" cy="15.18" r="3.04"/><path class="cls-3" d="M60.72,3H28.84a1.52,1.52,0,1,0,0,3H60.72a3,3,0,0,1,3,3V33.39a3,3,0,0,1-3,3H56.16a1.52,1.52,0,1,0,0,3h4.56a6.07,6.07,0,0,0,6.07-6.07V9.11A6.07,6.07,0,0,0,60.72,3Z"/><circle class="cls-2" cx="54.64" cy="27.32" r="3.04"/><path class="cls-1" d="M47,53.32a1.77,1.77,0,0,1,.79,1.32c0,1.68-3.32,3-8.35,3s-8.34-1.36-8.34-3a1.77,1.77,0,0,1,.79-1.32A10.37,10.37,0,0,1,29,51.61a4.07,4.07,0,0,0-1.64,3c0,3.36,5.44,6.08,12.14,6.08S51.61,58,51.61,54.64a4.07,4.07,0,0,0-1.64-3A10.23,10.23,0,0,1,47,53.32Z"/><path class="cls-2" d="M36.43,30.36a9.11,9.11,0,1,0-9.11-9.11A9.11,9.11,0,0,0,36.43,30.36Zm0-15.18a6.07,6.07,0,1,1-6.07,6.07A6.07,6.07,0,0,1,36.43,15.18Z"/><path class="cls-1" d="M39.46,39.46c-6.7,0-12.14,2.72-12.14,6.08s5.44,6.07,12.14,6.07,12.15-2.72,12.15-6.07S46.17,39.46,39.46,39.46Zm0,9.11c-5,0-8.34-1.36-8.34-3s3.32-3,8.34-3,8.35,1.36,8.35,3S44.49,48.57,39.46,48.57Z"/></g></svg>